<?xml version="1.0" encoding="UTF-8"?>
<svg version="1.1" xmlns="http://www.w3.org/2000/svg" width="1126" height="372">
<path d="M0 0 C26.73 0 53.46 0 81 0 C81.33 67.98 81.66 135.96 82 206 C87.28 196.76 92.56 187.52 98 178 C102.37684041 170.4038307 106.75491277 162.80851981 111.14111328 155.21777344 C114.26324605 149.81329355 117.38141204 144.40652588 120.5 139 C121.74998122 136.8333225 122.99998121 134.66665583 124.25 132.5 C124.86875 131.4275 125.4875 130.355 126.125 129.25 C138 108.66666667 149.875 88.08333333 161.75 67.5 C162.36891113 66.42717773 162.98782227 65.35435547 163.62548828 64.24902344 C164.87371034 62.08552524 166.12208239 59.92211357 167.37060547 57.75878906 C170.52405256 52.29434983 173.67476096 46.82836355 176.8203125 41.359375 C177.45775391 40.25207031 178.09519531 39.14476562 178.75195312 38.00390625 C179.9313578 35.95501346 181.10987081 33.90560689 182.28710938 31.85546875 C183.45759366 29.8230209 184.67129686 27.81508708 185.91821289 25.82861328 C187.72336657 22.78292956 188.81906893 19.70386763 189.95483398 16.35498047 C192.49113776 9.78631959 195.11612088 4.14427357 201 0 C212.35699675 -4.07463113 226.25252153 -2.15132563 238.05047607 -1.51062012 C242.66751016 -1.28391582 247.28718718 -1.18475621 251.90820312 -1.07421875 C260.94578013 -0.8395261 269.9715499 -0.46510677 279 0 C279.14108173 4.05471311 279.24205921 8.1084395 279.30899048 12.16506958 C279.33694449 13.53922463 279.37507369 14.91321783 279.42434692 16.28677368 C279.85968003 28.75209614 276.92510789 37.31203495 269.76171875 47.44921875 C265.93421813 53.03596779 262.55201508 58.81369977 259.1875 64.6875 C258.01458675 66.69492618 256.84008129 68.70142282 255.6640625 70.70703125 C251.75364427 77.40502207 247.90385864 84.13727111 244.0625 90.875 C239.37458377 99.09736264 234.67635875 107.31328501 229.94287109 115.50952148 C228.66607963 117.72120411 227.39159429 119.93421996 226.11962891 122.14868164 C223.53208142 126.64938872 220.93643225 131.13738874 218.21484375 135.55859375 C217.82103516 136.20908691 217.42722656 136.85958008 217.02148438 137.52978516 C216.03681777 139.14916253 215.03311512 140.75692657 214.02734375 142.36328125 C212.70658165 144.93158464 212.70658165 144.93158464 213.75415039 147.32983398 C215.03628556 150.07776899 216.4221012 152.71497653 217.90625 155.359375 C218.47980225 156.38345459 219.05335449 157.40753418 219.64428711 158.46264648 C220.25667236 159.54747314 220.86905762 160.6322998 221.5 161.75 C222.13365479 162.87672119 222.76730957 164.00344238 223.42016602 165.16430664 C227.25000564 171.95517743 231.13335601 178.70984746 235.1105957 185.4152832 C238.85304663 191.72724525 242.52403479 198.07941601 246.1875 204.4375 C246.82550537 205.54472412 247.46351074 206.65194824 248.12084961 207.79272461 C249.42889477 210.06337068 250.73675448 212.33412358 252.04443359 214.60498047 C255.19332054 220.0716998 258.34683264 225.53574887 261.5 231 C262.7500235 233.16665311 264.00002347 235.33331979 265.25 237.5 C265.86875 238.5725 266.4875 239.645 267.125 240.75 C274 252.66666667 280.875 264.58333333 287.75 276.5 C288.3689917 277.57290283 288.9879834 278.64580566 289.62573242 279.7512207 C290.8733474 281.91378583 292.12090616 284.07638339 293.3684082 286.23901367 C299.07018738 296.12370438 299.07018738 296.12370438 304.78100586 306.00317383 C306.04663291 308.2000716 307.3040459 310.40172302 308.55297852 312.6081543 C311.85638511 318.42455493 315.26381181 324.0344431 319.18261719 329.45898438 C329.18570659 345.72444194 326 349.02943093 326 372 C299.93 372 273.86 372 247 372 C242.38 363.75 237.76 355.5 233 347 C227.79469653 338.0368581 227.79469653 338.0368581 222.5625 329.08984375 C218.8678669 322.78429581 215.21147319 316.45705564 211.5625 310.125 C210.93996338 309.04484619 210.31742676 307.96469238 209.67602539 306.85180664 C208.41423174 304.66203666 207.15259466 302.47217645 205.89111328 300.28222656 C203.38629428 295.934849 200.8789411 291.58893611 198.37133789 287.24316406 C197.12684698 285.08637121 195.88254266 282.92947069 194.63842773 280.77246094 C191.44133823 275.22955566 188.24201499 269.68795719 185.0390625 264.1484375 C178.28960337 252.47076209 171.56699121 240.78143139 165 229 C160.39779579 235.63277133 156.38889796 242.49263589 152.5 249.5625 C147.77594016 258.07435918 142.98498361 266.53876112 138.0625 274.9375 C133.20075324 283.23387296 128.36373238 291.54343137 123.5625 299.875 C122.93996338 300.95515381 122.31742676 302.03530762 121.67602539 303.14819336 C120.41423174 305.33796334 119.15259466 307.52782355 117.89111328 309.71777344 C114.76319851 315.14659943 111.63140434 320.57318635 108.5 326 C107.26430886 328.14191898 106.02863183 330.28384609 104.79296875 332.42578125 C102.49750542 336.40462432 100.20176586 340.38330773 97.90567017 344.36178589 C96.87326522 346.15066918 95.84092044 347.93958717 94.80859375 349.72851562 C93.51314052 351.97337636 92.2175743 354.2181719 90.921875 356.46289062 C90.33535156 357.47931641 89.74882813 358.49574219 89.14453125 359.54296875 C88.63253174 360.43008545 88.12053223 361.31720215 87.59301758 362.23120117 C85.72180666 365.48352348 83.86161423 368.74217509 82 372 C54.94 372 27.88 372 0 372 C0 249.24 0 126.48 0 0 Z " fill="#002246" transform="translate(0,0)"/>
<path d="M0 0 C0.83237906 0.00092179 1.66475813 0.00184359 2.5223608 0.00279331 C3.47453487 0.00141865 4.42670895 0.00004398 5.40773678 -0.00137234 C6.46077496 0.00222294 7.51381313 0.00581821 8.59876156 0.00952244 C10.25221081 0.0093034 10.25221081 0.0093034 11.93906307 0.00907993 C15.60226021 0.00977961 19.26540723 0.01757459 22.92859554 0.02539158 C25.46065398 0.02725556 27.99271277 0.02867956 30.52477169 0.0296793 C36.52067179 0.03311437 42.51655019 0.04100514 48.51244158 0.05102879 C55.33699987 0.06219105 62.16155901 0.06770066 68.98612416 0.07272422 C83.02815593 0.08318779 97.07017162 0.10078653 111.11218929 0.12304783 C111.41609726 0.96751421 111.41609726 0.96751421 111.72614479 1.82904053 C125.55295795 40.26539383 125.55295795 40.26539383 139.42468929 78.68554783 C139.85074459 79.86332798 140.27679989 81.04110813 140.71576595 82.25457859 C147.66414353 101.45443488 154.70788626 120.61787868 161.78909969 139.76907444 C169.08993985 159.52425889 176.24099334 179.33019157 183.34091091 199.15815067 C190.74665161 219.83897446 198.26476261 240.4743546 205.89008236 261.07550144 C214.19853268 283.53217824 222.31682048 306.05471302 230.38757992 328.5976572 C231.07959677 330.52994244 231.77163716 332.46221925 232.46368313 334.39449406 C233.12573639 336.24385771 233.78696836 338.0935153 234.44818783 339.94317722 C236.37864067 345.3338249 238.32338795 350.71749746 240.32800961 356.08105564 C240.82683147 357.4168819 240.82683147 357.4168819 241.33573055 358.77969456 C241.94077981 360.39274697 242.55011675 362.004201 243.16477108 363.6136179 C244.28525908 366.59568259 245.11218929 368.90832316 245.11218929 372.12304783 C216.40218929 372.12304783 187.69218929 372.12304783 158.11218929 372.12304783 C153.56437679 359.53148533 153.56437679 359.53148533 148.92468929 346.68554783 C141.60003023 326.42955178 134.20878633 306.20036451 126.73718929 285.99804783 C118.99939232 265.07327801 111.40659824 244.10010624 103.88659191 223.09642506 C96.3291995 201.9889051 88.65221751 180.93042457 80.86765194 159.90542698 C74.06035982 141.51427244 67.40793307 123.07336351 60.90735531 104.57153416 C60.59534176 103.68603886 60.28332821 102.80054356 59.9618597 101.88821507 C59.38626491 100.25378169 58.81289423 98.61856252 58.24225521 96.98239231 C57.04285023 93.57736981 55.76893846 90.32841741 54.11218929 87.12304783 C53.89573254 87.72310139 53.67927578 88.32315495 53.45625973 88.94139194 C50.61530876 96.81549431 47.77105095 104.68839994 44.92468929 112.56054783 C44.68985584 113.21006161 44.45502239 113.85957539 44.21307278 114.5287714 C37.12577636 134.128519 29.96672718 153.70023052 22.73718929 173.24804783 C14.99927205 194.17314288 7.40742944 215.14698054 -0.11385441 236.15056324 C-8.07269122 258.37442383 -16.16337688 280.54520509 -24.35167789 302.68579197 C-30.92767615 320.4731132 -37.40552564 338.29446817 -43.82482243 356.13891697 C-44.16160007 357.07394047 -44.49837772 358.00896397 -44.84536076 358.97232151 C-45.47092294 360.7095983 -46.09539885 362.44726677 -46.71859074 364.18539524 C-48.77606395 369.89955431 -48.77606395 369.89955431 -49.88781071 372.12304783 C-78.59781071 372.12304783 -107.30781071 372.12304783 -136.88781071 372.12304783 C-133.51350657 359.75059934 -133.51350657 359.75059934 -131.98449039 355.65747166 C-131.63759159 354.72111378 -131.29069279 353.7847559 -130.9332819 352.82002354 C-130.56249516 351.83334187 -130.19170841 350.84666019 -129.80968571 349.83007908 C-129.21120823 348.21814922 -129.21120823 348.21814922 -128.6006403 346.57365513 C-127.73673658 344.24721661 -126.87088823 341.92149946 -126.00328922 339.5964365 C-123.62504396 333.22028994 -121.26356446 326.83794969 -118.90343571 320.45507908 C-118.65713413 319.78932991 -118.41083256 319.12358074 -118.1570673 318.43765736 C-112.70901605 303.70550752 -107.39958071 288.92463724 -102.10801029 274.13570881 C-94.21961445 252.09089396 -86.22303031 230.09054025 -78.09581852 208.13232517 C-71.08017086 189.16889717 -64.20391499 170.1587927 -57.38781071 151.12304783 C-49.71773515 129.70289854 -41.94716058 108.32384941 -34.04857731 86.98657322 C-28.88127661 73.02510049 -23.76103351 59.04844378 -18.71984196 45.04101658 C-18.46383654 44.32985502 -18.20783112 43.61869347 -17.94406796 42.88598156 C-15.4369154 35.92002208 -12.93388274 28.95260395 -10.43935013 21.98211479 C-9.74749359 20.0499023 -9.05447679 18.11811048 -8.36100101 16.18647861 C-7.51136297 13.81908256 -6.66401959 11.45086136 -5.81928349 9.08171177 C-5.44583302 8.04218861 -5.07238255 7.00266544 -4.68761539 5.93164158 C-4.36234867 5.02212742 -4.03708195 4.11261326 -3.70195866 3.17553806 C-2.50716024 0.16341714 -2.50716024 0.16341714 0 0 Z " fill="#002246" transform="translate(880.8878107070923,-0.1230478286743164)"/>
<path d="M0 0 C123.09 0 246.18 0 373 0 C373 27.06 373 54.12 373 82 C249.91 82 126.82 82 0 82 C0 54.94 0 27.88 0 0 Z " fill="#002246" transform="translate(347,145)"/>
<path d="M0 0 C123.09 0 246.18 0 373 0 C373 26.73 373 53.46 373 81 C249.91 81 126.82 81 0 81 C0 54.27 0 27.54 0 0 Z " fill="#002246" transform="translate(347,291)"/>
<path d="M0 0 C123.09 0 246.18 0 373 0 C373 26.73 373 53.46 373 81 C249.91 81 126.82 81 0 81 C0 54.27 0 27.54 0 0 Z " fill="#002246" transform="translate(347,0)"/>
<path d="M0 0 C0.66 0 1.32 0 2 0 C5.0263696 8.16462119 8.04652606 16.3315332 11.0625 24.5 C11.40842634 25.43686205 11.40842634 25.43686205 11.76134109 26.3926506 C20.52042136 50.12039252 29.12003136 73.90366706 37.64042568 97.71808052 C38.5755916 100.33172454 39.51127897 102.94518167 40.4471035 105.55858994 C41.10929372 107.40844245 41.77075608 109.25855546 42.4322052 111.1086731 C45.20985762 118.85894316 48.06977126 126.57075351 51.05883789 134.24194336 C52 137 52 137 52 140 C47.65563961 139.36068583 43.99333519 137.75768717 40.07421875 135.8671875 C39.40896683 135.55226349 38.7437149 135.23733948 38.05830383 134.91287231 C35.93217469 133.90547032 33.80965936 132.89073439 31.6875 131.875 C26.84044987 129.56423006 21.98794149 127.26583552 17.12249756 124.99401855 C15.68070159 124.31878953 14.24102618 123.6390177 12.80328369 122.9552002 C10.65310444 121.93625219 8.49414456 120.93863986 6.33203125 119.9453125 C5.35963753 119.47760941 5.35963753 119.47760941 4.36759949 119.00045776 C0.13873454 117.09074583 -2.54712357 116.6846958 -7 118 C-9.67106346 119.13583491 -9.67106346 119.13583491 -12.2734375 120.625 C-13.25610596 121.16294189 -14.23877441 121.70088379 -15.2512207 122.25512695 C-16.28206787 122.83093506 -17.31291504 123.40674316 -18.375 124 C-19.96671021 124.87434692 -19.96671021 124.87434692 -21.59057617 125.76635742 C-26.42406008 128.42837683 -31.23640817 131.12546424 -36.02734375 133.86328125 C-36.76098145 134.28158203 -37.49461914 134.69988281 -38.25048828 135.13085938 C-39.59267966 135.90000528 -40.93113098 136.67572719 -42.26513672 137.45898438 C-45.07875721 139.08083616 -46.69078222 140 -50 140 C-47.77762823 132.22690501 -45.15585761 124.63081913 -42.4140625 117.02734375 C-41.95959404 115.76170987 -41.50530414 114.49601187 -41.05117798 113.23025513 C-39.83224182 109.8354722 -38.60963328 106.44202312 -37.38606262 103.04890823 C-36.62221982 100.92978698 -35.85946747 98.81027628 -35.0970459 96.69064331 C-26.70239831 73.35555238 -18.18179902 50.06813003 -9.56494141 26.81420898 C-9.14409271 25.67732635 -8.72324402 24.54044373 -8.28964233 23.36911011 C-7.51257333 21.27079478 -6.73422452 19.1729527 -5.95425415 17.07571411 C-3.85849675 11.41783247 -1.86438651 5.73842993 0 0 Z " fill="#002246" transform="translate(934,232)"/>
</svg>
